<svg xmlns="http://www.w3.org/2000/svg" viewBox="0 0 64 64" role="img" aria-labelledby="yehhiLogoTitle">
  <title id="yehhiLogoTitle">YEHHI</title>
  <path
    fill="#5a4ec8"
    d="M32 3.5 54.5 12.8v19.2c0 14.2-14.8 24.8-22.5 28.5C24.3 56.8 9.5 46.2 9.5 32V12.8L32 3.5z"
  />
  <path
    fill="#3d3488"
    d="M32 7.2 50.8 15v16.4c0 11.6-11.2 20.4-18.8 23.4C24.4 54.2 13.2 45.4 13.2 31.4V15L32 7.2z"
  />
  <text
    x="32"
    y="14"
    fill="#d4ccff"
    font-family="Arial, Helvetica, sans-serif"
    font-size="5.5"
    font-weight="700"
    letter-spacing="0.35"
    text-anchor="middle"
  >
    OPERATOR
  </text>
  <ellipse cx="24" cy="30" rx="5.5" ry="6.5" fill="#fff" />
  <ellipse cx="40" cy="30" rx="5.5" ry="6.5" fill="#fff" />
  <circle cx="24" cy="31" r="2.2" fill="#2a2438" />
  <circle cx="40" cy="31" r="2.2" fill="#2a2438" />
  <path
    fill="none"
    stroke="#fff"
    stroke-width="2.2"
    stroke-linecap="round"
    d="M22 40.5c3.5 4 16.5 4 20 0"
  />
</svg>
